<svg xmlns="http://www.w3.org/2000/svg" xmlns:xlink="http://www.w3.org/1999/xlink" width="1024" zoomAndPan="magnify" viewBox="0 0 768 767.999994" height="1024" preserveAspectRatio="xMidYMid meet" version="1.2"><defs/><g id="bb41529a6b"><rect x="0" width="768" y="0" height="767.999994" style="fill:#ffffff;fill-opacity:1;stroke:none;"/><rect x="0" width="768" y="0" height="767.999994" style="fill:#780000;fill-opacity:1;stroke:none;"/><path style=" stroke:none;fill-rule:nonzero;fill:#ffffff;fill-opacity:1;" d="M 337.445312 502.378906 C 324.1875 500.671875 311.980469 500.085938 300.277344 497.367188 C 253.742188 486.558594 218.597656 446.941406 211.832031 399.511719 C 203.007812 337.890625 244.023438 275.957031 311.164062 266.082031 C 355.445312 259.550781 392.535156 274.675781 421.109375 309.3125 C 425.078125 314.132812 428.808594 316.15625 435.183594 316.078125 C 495.5625 315.457031 545.636719 356.785156 555.277344 416.578125 C 566.785156 487.917969 515.546875 547.402344 451.667969 554.398438 C 405.015625 559.53125 367.691406 542.230469 339.46875 504.945312 C 338.496094 503.664062 337.484375 502.417969 337.445312 502.378906 Z M 369.636719 494.175781 C 393.859375 522.945312 441.988281 534.300781 481.214844 512.332031 C 519.976562 490.601562 537.820312 444.023438 523.242188 402.113281 C 510.761719 366.152344 470.136719 336.488281 439.617188 341.503906 C 450.425781 372.21875 449.648438 402.582031 436.117188 432.246094 C 422.550781 461.910156 399.6875 481.929688 369.636719 494.175781 Z M 395.0625 323.191406 C 377.878906 298.816406 333.597656 278.832031 290.289062 300.332031 C 250.867188 319.886719 232.4375 364.988281 246.589844 406.585938 C 257.511719 438.660156 295.691406 468.089844 320.261719 463.386719 C 306.886719 395.15625 345.144531 342.671875 395.0625 323.191406 Z M 418.660156 317.050781 C 389.152344 273.46875 322.945312 254.691406 269.914062 287.542969 C 216.925781 320.394531 200.90625 389.246094 233.796875 442.355469 C 266.183594 494.605469 335.578125 510.777344 388.027344 477.925781 C 444.203125 442.78125 449.957031 375.328125 431.257812 340.261719 C 426.28125 341 421.070312 341.816406 415.046875 342.710938 C 423.988281 367.707031 424.339844 391.773438 413.996094 415.371094 C 403.5 439.28125 385.847656 456 361.433594 465.367188 C 320.222656 481.191406 272.09375 465.019531 248.765625 425.910156 C 227.109375 389.597656 232.085938 338.859375 267.816406 307.953125 C 284.84375 293.21875 304.75 285.441406 327.105469 285.171875 C 357.855469 284.820312 383.011719 297.496094 402.488281 320.9375 C 408.125 319.578125 413.0625 318.371094 418.660156 317.050781 Z M 345.144531 500.902344 C 366.136719 535.894531 427.175781 568.199219 488.835938 536.828125 C 543.886719 508.835938 566.242188 441.964844 539.492188 386.410156 C 512.746094 330.929688 446.304688 306.671875 390.320312 332.289062 C 330.875 359.464844 314.351562 424.003906 328.347656 464.902344 C 333.246094 465.292969 338.222656 465.40625 343.238281 463.191406 C 342.5 460.160156 341.878906 457.59375 341.296875 454.988281 C 326.832031 394.183594 371.773438 335.285156 434.40625 334.195312 C 497.699219 333.105469 540.660156 388.195312 533.660156 442.976562 C 528.761719 481.386719 508.234375 508.875 472.429688 523.023438 C 436.3125 537.292969 402.488281 530.878906 372.320312 506.191406 C 365.632812 495.886719 356.378906 496.238281 346.347656 500.007812 C 346.078125 500.085938 345.921875 500.28125 345.144531 500.902344 Z M 408.632812 345.277344 C 352.570312 361.292969 333.09375 426.53125 351.054688 461.832031 C 401.324219 449.855469 429.429688 392.472656 408.632812 345.277344 Z M 434.328125 304.765625 C 415.472656 281.554688 406.53125 256.789062 411.507812 227.941406 C 412.792969 220.59375 415.863281 214.0625 421.226562 208.738281 C 430.519531 199.484375 442.765625 199.835938 450.695312 210.214844 C 455.050781 215.929688 458.121094 222.65625 462.089844 229.460938 C 463.644531 228.566406 465.664062 227.4375 467.6875 226.269531 C 474.335938 222.421875 481.371094 219.894531 489.1875 220.207031 C 501.9375 220.710938 510.140625 229.730469 509.363281 242.523438 C 508.976562 248.9375 506.796875 254.886719 502.519531 259.511719 C 496.496094 266.003906 490.507812 273.039062 483.160156 277.628906 C 467.609375 287.308594 451.203125 295.511719 434.328125 304.765625 Z M 434.953125 297.261719 C 449.53125 289.410156 463.605469 282.527344 476.902344 274.402344 C 483.898438 270.125 490.15625 264.175781 495.679688 258.035156 C 499.140625 254.222656 501.511719 248.898438 502.832031 243.84375 C 505.242188 234.785156 499.101562 227.242188 489.730469 226.464844 C 483.898438 226 478.378906 227.398438 473.402344 230.238281 C 469.941406 232.21875 466.832031 234.902344 463.605469 237.3125 C 460.300781 239.761719 458.511719 239.449219 456.683594 235.757812 C 455.632812 233.578125 455.128906 231.128906 454.039062 228.992188 C 451.628906 224.171875 449.53125 219.117188 446.382812 214.839844 C 440.277344 206.367188 431.648438 206.328125 424.609375 214.140625 C 419.90625 219.351562 417.652344 225.765625 416.835938 232.53125 C 413.996094 256.167969 420.996094 277.160156 434.953125 297.261719 Z M 434.953125 297.261719 "/><g style="fill:#ffffff;fill-opacity:1;"><g transform="translate(322.455975, 668.770135)"><path style="stroke:none" d="M 11.34375 0 L 3.640625 0 L 3.640625 -40.828125 L 12.3125 -40.828125 L 29.046875 -11.609375 L 29.046875 -40.828125 L 36.75 -40.828125 L 36.75 0 L 28.03125 0 L 11.34375 -29.265625 Z M 11.34375 0 "/></g></g><g style="fill:#ffffff;fill-opacity:1;"><g transform="translate(366.051251, 668.770135)"><path style="stroke:none" d="M 14.015625 -43.125 C 12.835938 -43.125 11.820312 -43.476562 10.96875 -44.1875 C 10.113281 -44.90625 9.6875 -45.867188 9.6875 -47.078125 C 9.6875 -48.296875 10.113281 -49.269531 10.96875 -50 C 11.820312 -50.726562 12.835938 -51.09375 14.015625 -51.09375 C 15.191406 -51.09375 16.195312 -50.726562 17.03125 -50 C 17.875 -49.269531 18.296875 -48.296875 18.296875 -47.078125 C 18.296875 -45.867188 17.875 -44.90625 17.03125 -44.1875 C 16.195312 -43.476562 15.191406 -43.125 14.015625 -43.125 Z M 25.3125 -43.125 C 24.132812 -43.125 23.125 -43.476562 22.28125 -44.1875 C 21.445312 -44.90625 21.03125 -45.867188 21.03125 -47.078125 C 21.03125 -48.296875 21.445312 -49.269531 22.28125 -50 C 23.125 -50.726562 24.132812 -51.09375 25.3125 -51.09375 C 26.488281 -51.09375 27.503906 -50.726562 28.359375 -50 C 29.210938 -49.269531 29.640625 -48.296875 29.640625 -47.078125 C 29.640625 -45.867188 29.210938 -44.90625 28.359375 -44.1875 C 27.503906 -43.476562 26.488281 -43.125 25.3125 -43.125 Z M 19.6875 0.75 C 15.800781 0.75 12.644531 0.0976562 10.21875 -1.203125 C 7.789062 -2.503906 6.015625 -4.332031 4.890625 -6.6875 C 3.765625 -9.039062 3.203125 -11.75 3.203125 -14.8125 L 3.203125 -40.828125 L 10.96875 -40.828125 L 10.96875 -14.8125 C 10.96875 -13.144531 11.234375 -11.648438 11.765625 -10.328125 C 12.304688 -9.003906 13.21875 -7.976562 14.5 -7.25 C 15.78125 -6.519531 17.507812 -6.15625 19.6875 -6.15625 C 21.894531 -6.15625 23.628906 -6.519531 24.890625 -7.25 C 26.160156 -7.976562 27.0625 -9.003906 27.59375 -10.328125 C 28.132812 -11.648438 28.40625 -13.144531 28.40625 -14.8125 L 28.40625 -40.828125 L 36.171875 -40.828125 L 36.171875 -14.8125 C 36.171875 -11.75 35.609375 -9.039062 34.484375 -6.6875 C 33.359375 -4.332031 31.582031 -2.503906 29.15625 -1.203125 C 26.726562 0.0976562 23.570312 0.75 19.6875 0.75 Z M 19.6875 0.75 "/></g></g><g style="fill:#ffffff;fill-opacity:1;"><g transform="translate(408.683702, 668.770135)"><path style="stroke:none" d="M 27.765625 -17.703125 L 35.09375 0 L 26.90625 0 L 20.4375 -16.3125 L 11.34375 -16.3125 L 11.34375 0 L 3.640625 0 L 3.640625 -40.828125 L 21.234375 -40.828125 C 23.804688 -40.828125 26.0625 -40.40625 28 -39.5625 C 29.945312 -38.726562 31.460938 -37.425781 32.546875 -35.65625 C 33.640625 -33.894531 34.1875 -31.601562 34.1875 -28.78125 C 34.1875 -26.101562 33.613281 -23.816406 32.46875 -21.921875 C 31.332031 -20.035156 29.765625 -18.628906 27.765625 -17.703125 Z M 20.171875 -33.921875 L 11.34375 -33.921875 L 11.34375 -23.0625 L 20.171875 -23.0625 C 22.234375 -23.0625 23.804688 -23.523438 24.890625 -24.453125 C 25.984375 -25.378906 26.53125 -26.734375 26.53125 -28.515625 C 26.53125 -30.265625 25.976562 -31.601562 24.875 -32.53125 C 23.769531 -33.457031 22.203125 -33.921875 20.171875 -33.921875 Z M 20.171875 -33.921875 "/></g></g></g></svg>